<svg width="190" height="190" viewBox="0 0 190 190" fill="none" xmlns="http://www.w3.org/2000/svg">
<mask id="mask0_807_2105" style="mask-type:alpha" maskUnits="userSpaceOnUse" x="0" y="0" width="190" height="190">
<rect width="190" height="190" rx="10" fill="#D9D9D9"/>
</mask>
<g mask="url(#mask0_807_2105)">
<rect x="-39.1094" y="-16.7539" width="240.294" height="212.353" fill="#F3F2F3"/>
<path d="M187.142 -44.6992H133.04C121.502 5.28604 154.1 190.007 0 181.627C0 186.478 4.00067 190.007 8.44585 190.007H187.142C192.032 190.007 195.588 186.037 195.588 181.627V-36.3193C195.588 -40.7298 191.588 -44.6992 187.142 -44.6992Z" fill="#EBE9EB" fill-opacity="0.6"/>
</g>
<path d="M155.557 40.0039C154.353 40.0039 153.199 40.4819 152.348 41.3328C151.498 42.1837 151.02 43.3377 151.02 44.541V52.8146H155.557C156.76 52.8146 157.914 52.3366 158.765 51.4857C159.616 50.6348 160.094 49.4808 160.094 48.2775V44.541C160.094 43.3377 159.616 42.1837 158.765 41.3328C157.914 40.4819 156.76 40.0039 155.557 40.0039Z" fill="#DAA502"/>
<path d="M146.978 72.8438H33.7803C32.7736 72.8438 31.8081 73.2437 31.0962 73.9556C30.3843 74.6674 29.9844 75.6329 29.9844 76.6397C29.9844 77.6464 30.3843 78.6119 31.0962 79.3238C31.8081 80.0357 32.7736 80.4356 33.7803 80.4356H146.978C147.985 80.4356 148.95 80.0357 149.662 79.3238C150.374 78.6119 150.774 77.6464 150.774 76.6397C150.774 75.6329 150.374 74.6674 149.662 73.9556C148.95 73.2437 147.985 72.8438 146.978 72.8438Z" fill="#47484C"/>
<path d="M33.7803 104.373H79.8617C80.8684 104.373 81.8339 103.973 82.5458 103.261C83.2577 102.549 83.6576 101.584 83.6576 100.577C83.6576 99.5704 83.2577 98.6049 82.5458 97.8931C81.8339 97.1812 80.8684 96.7812 79.8617 96.7812H33.7803C32.7736 96.7812 31.8081 97.1812 31.0962 97.8931C30.3843 98.6049 29.9844 99.5704 29.9844 100.577C29.9844 101.584 30.3843 102.549 31.0962 103.261C31.8081 103.973 32.7736 104.373 33.7803 104.373Z" fill="#47484C"/>
<path d="M164.47 48.9648H33.7803C32.7736 48.9648 31.8081 49.3648 31.0962 50.0766C30.3843 50.7885 29.9844 51.754 29.9844 52.7608C29.9844 53.7675 30.3843 54.733 31.0962 55.4449C31.8081 56.1568 32.7736 56.5567 33.7803 56.5567H164.47C164.968 56.5567 165.462 56.4585 165.922 56.2678C166.383 56.077 166.801 55.7974 167.154 55.4449C167.506 55.0924 167.786 54.674 167.977 54.2134C168.168 53.7529 168.266 53.2593 168.266 52.7608C168.266 52.2623 168.168 51.7687 167.977 51.3081C167.786 50.8476 167.506 50.4291 167.154 50.0766C166.801 49.7242 166.383 49.4446 165.922 49.2538C165.462 49.063 164.968 48.9648 164.47 48.9648Z" fill="#47484C"/>
<path d="M124.244 120.68H33.7803C32.7736 120.68 31.8081 121.08 31.0962 121.791C30.3843 122.503 29.9844 123.469 29.9844 124.476C29.9844 125.482 30.3843 126.448 31.0962 127.16C31.8081 127.872 32.7736 128.272 33.7803 128.272H124.244C125.25 128.272 126.216 127.872 126.928 127.16C127.64 126.448 128.04 125.482 128.04 124.476C128.04 123.469 127.64 122.503 126.928 121.791C126.216 121.08 125.25 120.68 124.244 120.68Z" fill="#47484C"/>
<path d="M100.381 144.617H33.7803C32.7736 144.617 31.8081 145.017 31.0962 145.729C30.3843 146.441 29.9844 147.406 29.9844 148.413C29.9844 149.42 30.3843 150.385 31.0962 151.097C31.8081 151.809 32.7736 152.209 33.7803 152.209H100.381C101.387 152.209 102.353 151.809 103.065 151.097C103.777 150.385 104.177 149.42 104.177 148.413C104.177 147.406 103.777 146.441 103.065 145.729C102.353 145.017 101.387 144.617 100.381 144.617Z" fill="#47484C"/>
<path d="M110.35 96.7422H95.2334C94.2267 96.7422 93.2612 97.1421 92.5493 97.854C91.8374 98.5659 91.4375 99.5314 91.4375 100.538C91.4375 101.545 91.8374 102.51 92.5493 103.222C93.2612 103.934 94.2267 104.334 95.2334 104.334H110.35C111.357 104.334 112.323 103.934 113.035 103.222C113.746 102.51 114.146 101.545 114.146 100.538C114.146 99.5314 113.746 98.5659 113.035 97.854C112.323 97.1421 111.357 96.7422 110.35 96.7422Z" fill="#47484C"/>
<path d="M146.978 72.8438H33.7803C32.7736 72.8438 31.8081 73.2437 31.0962 73.9556C30.3843 74.6674 29.9844 75.6329 29.9844 76.6397C29.9844 77.6464 30.3843 78.6119 31.0962 79.3238C31.8081 80.0357 32.7736 80.4356 33.7803 80.4356H146.978C147.985 80.4356 148.95 80.0357 149.662 79.3238C150.374 78.6119 150.774 77.6464 150.774 76.6397C150.774 75.6329 150.374 74.6674 149.662 73.9556C148.95 73.2437 147.985 72.8438 146.978 72.8438Z" fill="#3A3B3E"/>
<path d="M33.7803 104.373H79.8617C80.8684 104.373 81.8339 103.973 82.5458 103.261C83.2577 102.549 83.6576 101.584 83.6576 100.577C83.6576 99.5704 83.2577 98.6049 82.5458 97.8931C81.8339 97.1812 80.8684 96.7812 79.8617 96.7812H33.7803C32.7736 96.7812 31.8081 97.1812 31.0962 97.8931C30.3843 98.6049 29.9844 99.5704 29.9844 100.577C29.9844 101.584 30.3843 102.549 31.0962 103.261C31.8081 103.973 32.7736 104.373 33.7803 104.373Z" fill="#3A3B3E"/>
<path d="M164.47 48.9648H33.7803C32.7736 48.9648 31.8081 49.3648 31.0962 50.0766C30.3843 50.7885 29.9844 51.754 29.9844 52.7608C29.9844 53.7675 30.3843 54.733 31.0962 55.4449C31.8081 56.1568 32.7736 56.5567 33.7803 56.5567H164.47C164.968 56.5567 165.462 56.4585 165.922 56.2678C166.383 56.077 166.801 55.7974 167.154 55.4449C167.506 55.0924 167.786 54.674 167.977 54.2134C168.168 53.7529 168.266 53.2593 168.266 52.7608C168.266 52.2623 168.168 51.7687 167.977 51.3081C167.786 50.8476 167.506 50.4291 167.154 50.0766C166.801 49.7242 166.383 49.4446 165.922 49.2538C165.462 49.063 164.968 48.9648 164.47 48.9648Z" fill="#3A3B3E"/>
<path d="M124.244 120.68H33.7803C32.7736 120.68 31.8081 121.08 31.0962 121.791C30.3843 122.503 29.9844 123.469 29.9844 124.476C29.9844 125.482 30.3843 126.448 31.0962 127.16C31.8081 127.872 32.7736 128.272 33.7803 128.272H124.244C125.25 128.272 126.216 127.872 126.928 127.16C127.64 126.448 128.04 125.482 128.04 124.476C128.04 123.469 127.64 122.503 126.928 121.791C126.216 121.08 125.25 120.68 124.244 120.68Z" fill="#3A3B3E"/>
<path d="M100.381 144.617H33.7803C32.7736 144.617 31.8081 145.017 31.0962 145.729C30.3843 146.441 29.9844 147.406 29.9844 148.413C29.9844 149.42 30.3843 150.385 31.0962 151.097C31.8081 151.809 32.7736 152.209 33.7803 152.209H100.381C101.387 152.209 102.353 151.809 103.065 151.097C103.777 150.385 104.177 149.42 104.177 148.413C104.177 147.406 103.777 146.441 103.065 145.729C102.353 145.017 101.387 144.617 100.381 144.617Z" fill="#3A3B3E"/>
<path d="M110.35 96.7422H95.2334C94.2267 96.7422 93.2612 97.1421 92.5493 97.854C91.8374 98.5659 91.4375 99.5314 91.4375 100.538C91.4375 101.545 91.8374 102.51 92.5493 103.222C93.2612 103.934 94.2267 104.334 95.2334 104.334H110.35C111.357 104.334 112.323 103.934 113.035 103.222C113.746 102.51 114.146 101.545 114.146 100.538C114.146 99.5314 113.746 98.5659 113.035 97.854C112.323 97.1421 111.357 96.7422 110.35 96.7422Z" fill="#3A3B3E"/>
<path d="M114.502 40.0039H156.156C155.236 40.0039 154.353 40.4819 153.702 41.3328C153.051 42.1837 152.685 43.3377 152.685 44.541V109.762C152.685 110.514 152.456 111.235 152.05 111.767C151.643 112.299 151.091 112.598 150.516 112.598C150.103 112.598 149.694 112.491 149.313 112.285C148.931 112.078 148.585 111.776 148.293 111.394L134.824 93.7891C134.434 93.28 133.972 92.8762 133.463 92.6007C132.954 92.3252 132.409 92.1834 131.858 92.1834C131.307 92.1834 130.762 92.3252 130.253 92.6007C129.744 92.8762 129.282 93.28 128.892 93.7891L115.422 111.394C115.131 111.776 114.784 112.078 114.403 112.285C114.021 112.491 113.613 112.598 113.2 112.598C112.625 112.598 112.073 112.299 111.666 111.767C111.259 111.235 111.03 110.514 111.03 109.762V44.541C111.03 43.3377 111.396 42.1837 112.047 41.3328C112.698 40.4819 113.581 40.0039 114.502 40.0039Z" fill="#F2B802"/>
</svg>
